<?xml version="1.0" encoding="utf-8"?>
<!-- Generator: Adobe Illustrator 28.0.0, SVG Export Plug-In . SVG Version: 6.00 Build 0)  -->
<svg version="1.1" id="Calque_1" xmlns="http://www.w3.org/2000/svg" xmlns:xlink="http://www.w3.org/1999/xlink" x="0px" y="0px"
	 viewBox="0 0 500 500" style="enable-background:new 0 0 500 500;" xml:space="preserve">
<style type="text/css">
	.st0{clip-path:url(#SVGID_00000114053053364768182770000012402978210758230424_);}
</style>
<g>
	<defs>
		<path id="SVGID_1_" d="M0,0H500v15H0V0z M485,15h14.8v470.1H485V15z M0,15h15v470.1h-15C-0.1,485.1-0.1,15,0,15z M0,485.1H500
			v14.8H0V485.1z"/>
	</defs>
	<clipPath id="SVGID_00000137848850325460490800000006980309052925926285_">
		<use xlink:href="#SVGID_1_"  style="overflow:visible;"/>
	</clipPath>
	<path style="clip-path:url(#SVGID_00000137848850325460490800000006980309052925926285_);" d="M0,0H500v500.1H0V0z"/>
</g>
<g>
	<g transform="translate(133.844732, 195.779488)">
		<g>
			<path d="M-43.8-17.1L-43.8-17.1L-15.5,25h33l-34-43.3c15-3.6,26.9-16.8,26.9-36.6c0-22.2-17-37.8-36-37.8h-44.1V25h25.9
				C-43.8,25-43.8-17.1-43.8-17.1z M-29.9-72.3c7.7,0,15.6,6.7,15.6,17.4c0,11.3-7.9,17.4-15.6,17.4h-13.7v-34.8H-29.9z"/>
		</g>
	</g>
</g>
<g>
	<g transform="translate(169.209926, 195.779488)">
		<g>
			<path d="M58.4,1.3H16.2v-23.7h40.4v-23.5H16.2v-23.5h42.3v-23.5H-9.7V25h68.1C58.4,25,58.4,1.3,58.4,1.3z"/>
		</g>
	</g>
</g>
<g>
	<g transform="translate(202.200323, 195.779488)">
		<g>
			<path d="M138.7,25V-92.7h-26.1v73.4L72.1-92.7H46.3V25h25.9v-73.4L112.6,25H138.7z"/>
		</g>
	</g>
</g>
<g>
	<g transform="translate(244.176425, 195.779488)">
		<g>
			<path d="M167.4-69.2H201v-23.5h-93v23.5h33.6V25h25.9v-94.2H167.4z"/>
		</g>
	</g>
</g>
<g>
	<g transform="translate(165.485355, 259.529484)">
		<g>
			<path d="M9.9,91h18.2c19,0,36-14,36-37.8c0-22.2-17-37.8-36-37.8h-44.3V133H9.7V91H9.9z M23.7,35.7c7.7,0,15.6,6.7,15.6,17.4
				c0,11.3-7.9,17.4-15.6,17.4H9.9V35.7H23.7z"/>
		</g>
	</g>
</g>
<g>
	<g transform="translate(200.016161, 259.529484)">
		<g>
			<path d="M127.5,93.2c-4.9,10.3-16.6,17.4-28.7,17.4c-19,0-34.2-16.2-34.2-36.4c0-19.8,15.2-36.4,34.2-36.4
				c11.9,0,23.7,6.7,28.5,17.2h28.9c-8.1-24.1-30.7-41.2-57.6-41.2C65.3,13.7,38,40.8,38,74.4c0,33.4,27.1,60.7,60.7,60.7
				c26.9,0,49.7-17.4,57.6-41.7h-28.7L127.5,93.2L127.5,93.2z"/>
		</g>
	</g>
</g>
</svg>
